<svg xmlns="http://www.w3.org/2000/svg" version="1.1" xmlns:xlink="http://www.w3.org/1999/xlink" xmlns:svgjs="http://svgjs.dev/svgjs" width="128" height="128" viewBox="0 0 128 128"><g transform="matrix(0.8046875,0,0,0.8046875,12.612792253521128,12.612792253521128)"><svg viewBox="0 0 142 142" data-background-color="#f8f8f8" preserveAspectRatio="xMidYMid meet" height="128" width="128" xmlns="http://www.w3.org/2000/svg" xmlns:xlink="http://www.w3.org/1999/xlink"><g id="tight-bounds" transform="matrix(1,0,0,1,-0.15550000000000352,-0.15550000000000352)"><svg viewBox="0 0 142.31066447748242 142.31066447748242" height="142.31066447748242" width="142.31066447748242"><g><svg></svg></g><g><svg viewBox="0 0 142.31066447748242 142.31066447748242" height="142.31066447748242" width="142.31066447748242"><g><path d="M0 71.155c0-39.298 31.857-71.155 71.155-71.155 39.298 0 71.155 31.857 71.156 71.155 0 39.298-31.857 71.155-71.156 71.156-39.298 0-71.155-31.857-71.155-71.156zM71.155 134.886c35.197 0 63.731-28.533 63.731-63.731 0-35.197-28.533-63.731-63.731-63.73-35.197 0-63.731 28.533-63.73 63.73 0 35.197 28.533 63.731 63.73 63.731z" data-fill-palette-color="tertiary" fill="#1a8917" stroke="transparent"></path><ellipse rx="68.30911894919156" ry="68.30911894919156" cx="71.15533223874121" cy="71.15533223874121" fill="#1a8917" stroke="transparent" stroke-width="0" fill-opacity="1" data-fill-palette-color="tertiary"></ellipse></g><g transform="matrix(1,0,0,1,41.77916005707053,29.989108276746492)"><svg viewBox="0 0 58.752344363341365 82.33244792398943" height="82.33244792398943" width="58.752344363341365"><g><svg viewBox="0 0 58.752344363341365 82.33244792398943" height="82.33244792398943" width="58.752344363341365"><g><svg viewBox="0 0 58.752344363341365 82.33244792398943" height="82.33244792398943" width="58.752344363341365"><g id="textblocktransform"><svg viewBox="0 0 58.752344363341365 82.33244792398943" height="82.33244792398943" width="58.752344363341365" id="textblock"><g><svg viewBox="0 0 58.752344363341365 82.33244792398943" height="82.33244792398943" width="58.752344363341365"><g transform="matrix(1,0,0,1,0,0)"><svg width="58.752344363341365" viewBox="3.61 -35.55 25.37 35.55" height="82.33244792398943" data-palette-color="#f8f8f8"><path d="M16.58 0L3.61 0 3.61-35.55 15.8-35.55Q21.83-35.55 24.98-33.13 28.13-30.71 28.13-25.93L28.13-25.93Q28.13-23.49 26.81-21.53 25.49-19.58 22.95-18.51L22.95-18.51Q25.83-17.72 27.4-15.56 28.98-13.4 28.98-10.38L28.98-10.38Q28.98-5.37 25.77-2.69 22.56 0 16.58 0L16.58 0ZM17.16-16.04L9.79-16.04 9.79-4.93 16.65-4.93Q19.56-4.93 21.19-6.37 22.83-7.81 22.83-10.38L22.83-10.38Q22.83-15.92 17.16-16.04L17.16-16.04ZM9.79-30.57L9.79-20.58 15.84-20.58Q18.73-20.58 20.35-21.89 21.97-23.19 21.97-25.59L21.97-25.59Q21.97-28.22 20.47-29.39 18.97-30.57 15.8-30.57L15.8-30.57 9.79-30.57Z" opacity="1" transform="matrix(1,0,0,1,0,0)" fill="#f8f8f8" class="wordmark-text-0" data-fill-palette-color="quaternary" id="text-0"></path></svg></g></svg></g></svg></g></svg></g><g></g></svg></g></svg></g></svg></g><defs></defs></svg><rect width="142.31066447748242" height="142.31066447748242" fill="none" stroke="none" visibility="hidden"></rect></g></svg></g></svg>